<?xml version="1.0" standalone="no"?>
<!DOCTYPE svg PUBLIC "-//W3C//DTD SVG 20010904//EN"
 "http://www.w3.org/TR/2001/REC-SVG-20010904/DTD/svg10.dtd">
<svg version="1.0" xmlns="http://www.w3.org/2000/svg"
 width="677.000000pt" height="1280.000000pt" viewBox="0 0 677.000000 1280.000000"
 preserveAspectRatio="xMidYMid meet">
<metadata>
Created by potrace 1.15, written by Peter Selinger 2001-2017
</metadata>
<g transform="translate(0.000000,1280.000000) scale(0.100000,-0.100000)"
fill="#000000" stroke="none">
<path d="M3982 12786 c-56 -18 -80 -40 -106 -96 -19 -42 -21 -67 -26 -340 -3
-162 -9 -301 -13 -308 -5 -7 -23 -11 -45 -10 -32 3 -38 -1 -62 -37 -15 -22
-43 -78 -62 -125 -131 -313 -171 -396 -270 -575 -220 -397 -316 -541 -410
-616 -66 -52 -126 -79 -264 -119 -191 -55 -226 -74 -416 -227 -85 -69 -138
-103 -195 -127 -85 -36 -171 -62 -178 -54 -3 3 2 19 11 37 26 53 15 130 -35
241 -44 95 -53 135 -90 370 -35 223 -71 283 -237 390 -243 157 -405 177 -651
79 -243 -96 -380 -238 -429 -445 -20 -84 -22 -249 -5 -324 18 -72 69 -183 119
-257 54 -80 197 -217 290 -278 1 -1 16 -70 33 -154 l30 -152 -73 -82 c-41 -45
-150 -172 -243 -282 -93 -110 -242 -272 -331 -360 -144 -143 -164 -167 -184
-220 -29 -75 -36 -190 -21 -321 37 -330 36 -351 -33 -739 -80 -445 -100 -647
-77 -795 28 -183 209 -456 487 -735 96 -96 140 -133 192 -159 96 -49 149 -90
183 -144 l31 -47 -7 -135 c-7 -153 1 -197 61 -337 l35 -82 -10 -113 c-6 -62
-15 -214 -21 -338 -6 -124 -20 -295 -31 -380 -23 -184 -24 -312 -4 -434 26
-160 45 -226 273 -951 84 -267 112 -420 112 -611 0 -100 -2 -111 -42 -212 -23
-59 -42 -125 -42 -146 -1 -34 4 -43 32 -62 48 -33 153 -47 311 -41 154 5 197
15 246 58 43 38 60 106 53 218 l-5 81 76 0 76 0 -4 -322 c-6 -551 34 -877 118
-967 35 -38 66 -39 115 -6 20 13 36 23 36 22 0 -1 -7 -24 -15 -51 -17 -57 -19
-144 -5 -236 32 -201 78 -234 296 -210 174 18 299 52 342 93 56 52 68 136 32
229 -11 28 -18 54 -16 56 11 10 88 -44 142 -100 86 -89 107 -119 236 -338 169
-284 226 -356 323 -403 63 -30 119 -44 215 -52 97 -8 164 4 169 30 2 10 -20
64 -48 119 -46 91 -55 118 -85 276 -19 96 -33 176 -32 177 1 2 27 -27 57 -63
75 -91 180 -178 266 -221 66 -33 81 -36 156 -36 90 0 142 10 286 54 103 31
121 42 121 71 0 32 -104 126 -280 253 -186 134 -305 246 -340 320 -22 46 -25
68 -33 285 -5 129 -6 304 -2 387 l7 153 250 337 c138 186 309 416 381 512 130
172 131 173 147 150 128 -198 263 -166 392 93 80 160 167 493 314 1197 25 119
58 279 75 356 89 412 142 708 158 880 31 320 39 616 21 735 -33 214 -190 529
-400 805 l-53 70 6 115 c6 135 51 368 101 522 49 150 127 318 233 498 50 85
98 169 107 187 32 64 57 195 61 323 l4 125 104 75 c289 208 450 367 517 512
53 116 69 364 31 501 -46 166 -30 208 148 402 108 118 118 147 64 176 -43 23
-197 17 -257 -10 -74 -33 -158 -126 -214 -239 -46 -93 -47 -97 -47 -186 0 -50
4 -138 9 -196 12 -143 2 -161 -155 -281 -42 -32 -155 -137 -252 -235 l-176
-176 -29 20 c-84 60 -248 268 -347 439 l-47 82 12 53 c31 135 22 123 88 124
65 1 123 28 144 67 6 12 17 76 24 143 7 67 17 132 24 143 16 32 52 51 122 67
128 29 131 40 57 182 -48 91 -51 101 -46 152 3 30 21 106 41 168 20 63 36 131
36 152 0 58 -35 159 -77 220 -37 54 -38 56 -34 140 4 106 -15 184 -74 305
-100 206 -214 346 -589 721 -298 298 -451 439 -522 480 -51 30 -228 73 -329
79 -45 3 -85 0 -113 -9z m678 -779 c54 -111 115 -244 135 -296 42 -108 99
-304 109 -371 l6 -45 -140 -23 c-285 -46 -472 -132 -521 -240 l-23 -50 -48 38
c-58 47 -96 57 -136 36 -35 -18 -52 -53 -98 -196 -22 -70 -75 -189 -147 -332
-133 -261 -161 -341 -155 -428 11 -155 139 -148 285 14 25 28 43 42 40 31 -13
-40 -47 -275 -58 -396 -28 -302 20 -585 124 -726 l35 -48 -23 -70 c-51 -153
-73 -312 -82 -595 -5 -188 11 -698 24 -744 4 -15 2 -18 -13 -11 -11 4 -44 10
-74 12 -111 10 -274 -70 -458 -223 -132 -110 -330 -310 -453 -457 -55 -64 -99
-116 -99 -115 0 2 9 32 20 67 11 35 25 117 31 182 11 128 5 186 -32 312 -37
125 -56 254 -119 797 -50 442 -70 838 -51 1025 26 248 80 373 261 605 67 85
167 227 223 315 56 88 188 289 294 447 224 334 408 627 470 748 46 89 84 201
104 310 14 72 18 339 6 383 -9 31 -17 28 108 51 50 10 117 31 151 46 67 32
149 111 166 161 10 30 11 30 25 9 8 -11 59 -112 113 -223z m-1677 -8390 c29
-19 79 -45 112 -58 56 -22 70 -24 215 -20 304 9 361 7 422 -13 67 -22 125 -67
144 -113 13 -31 12 -36 -15 -85 -65 -117 -107 -269 -186 -675 -40 -207 -64
-282 -142 -437 -81 -162 -156 -277 -205 -316 -58 -46 -174 -145 -224 -193
l-42 -39 -30 129 c-84 355 -103 600 -67 903 29 254 10 555 -60 915 -19 102
-19 107 6 68 11 -18 44 -47 72 -66z"/>
</g>
</svg>
